<svg width="55" height="49" viewBox="0 0 55 49" fill="none" xmlns="http://www.w3.org/2000/svg">
<path d="M36.6667 0.458333C34.375 0.458333 32.5417 2.29167 32.5417 4.58333C32.5417 6.875 34.375 8.70833 36.6667 8.70833C38.9583 8.70833 40.7917 6.875 40.7917 4.58333C40.7917 2.29167 38.9583 0.458333 36.6667 0.458333ZM28.4167 7.10417C27.3396 7.10417 26.3542 7.53958 25.6667 8.25L17.1875 16.7063C16.4771 17.4167 16.0417 18.3333 16.0417 19.4792C16.0417 20.9229 16.7979 22.1375 17.9896 22.8479L25.6667 27.5V38.9583H29.7917V24.0625L24.6354 20.2813L29.9521 14.8958L33.9167 20.625H43.5417V16.5H36.2083L31.7625 9.00625C31.0979 7.86042 29.7917 7.10417 28.4167 7.10417ZM22.9167 4.58333H6.875C5.61458 4.58333 4.58333 3.55208 4.58333 2.29167C4.58333 1.03125 5.61458 0 6.875 0H29.3104C28.8292 0.779167 28.4396 1.62708 28.2333 2.54375C26.2625 2.58958 24.4062 3.32292 22.9167 4.58333ZM11.4583 25.2083C5.13333 25.2083 0 30.3417 0 36.6667C0 42.9917 5.13333 48.125 11.4583 48.125C17.7833 48.125 22.9167 42.9917 22.9167 36.6667C22.9167 30.3417 17.7833 25.2083 11.4583 25.2083ZM11.4583 44.6875C7.03542 44.6875 3.4375 41.0896 3.4375 36.6667C3.4375 32.2438 7.03542 28.6458 11.4583 28.6458C15.8813 28.6458 19.4792 32.2438 19.4792 36.6667C19.4792 41.0896 15.8813 44.6875 11.4583 44.6875ZM43.5417 25.2083C37.2167 25.2083 32.0833 30.3417 32.0833 36.6667C32.0833 42.9917 37.2167 48.125 43.5417 48.125C49.8667 48.125 55 42.9917 55 36.6667C55 30.3417 49.8667 25.2083 43.5417 25.2083ZM43.5417 44.6875C39.1188 44.6875 35.5208 41.0896 35.5208 36.6667C35.5208 32.2438 39.1188 28.6458 43.5417 28.6458C47.9646 28.6458 51.5625 32.2438 51.5625 36.6667C51.5625 41.0896 47.9646 44.6875 43.5417 44.6875ZM12.1917 22.9167H2.29167C1.02667 22.9167 0 21.8854 0 20.625C0 19.3646 1.02667 18.3333 2.29167 18.3333H11.5729C11.5271 18.7 11.4583 19.0896 11.4583 19.4792C11.4583 20.6938 11.7333 21.8625 12.1917 22.9167ZM13.75 13.75H4.58333C3.32292 13.75 2.29167 12.7188 2.29167 11.4583C2.29167 10.1979 3.32292 9.16667 4.58333 9.16667H18.2646L13.9563 13.4521C13.8646 13.5437 13.75 13.6583 13.75 13.75Z" fill="black"/>
</svg>
