<svg width="75" height="75" viewBox="0 0 75 75" fill="none" xmlns="http://www.w3.org/2000/svg">
<path fill-rule="evenodd" clip-rule="evenodd" d="M22.9503 16.082L51.8574 16.0713C52.7553 16.0711 53.6203 16.4091 54.2801 17.018C54.94 17.6269 55.3463 18.462 55.4181 19.357L58.611 58.6391C58.6491 59.1068 58.5947 59.5773 58.4509 60.0239C58.3071 60.4705 58.0768 60.8844 57.773 61.242C57.4692 61.5995 57.0979 61.8937 56.6803 62.1077C56.2628 62.3217 55.8072 62.4513 55.3396 62.4891L55.0539 62.4999H19.9289C18.9816 62.4999 18.0732 62.1236 17.4035 61.4538C16.7337 60.784 16.3574 59.8756 16.3574 58.9284L16.3681 58.6534L19.3896 19.3784C19.4588 18.4815 19.864 17.6438 20.5241 17.0327C21.1843 16.4215 22.0507 16.082 22.9503 16.082Z" stroke="black" stroke-width="3.5" stroke-linecap="round" stroke-linejoin="round"/>
<path d="M48.2147 30.3569V32.6605C48.2147 36.6069 41.4468 37.4998 37.5004 37.4998C33.554 37.4998 26.7861 36.0891 26.7861 32.1426V30.3569" stroke="black" stroke-width="3.5" stroke-linecap="round" stroke-linejoin="round"/>
</svg>
